<?xml version="1.0" encoding="UTF-8" standalone="no"?>
<!-- Created with Inkscape (http://www.inkscape.org/) -->

<svg
   width="317.5mm"
   height="317.5mm"
   viewBox="0 0 317.5 317.5"
   version="1.1"
   id="svg1"
   xml:space="preserve"
   inkscape:version="1.4.3 (0d15f75, 2025-12-25)"
   sodipodi:docname="icon-gs.svg"
   xmlns:inkscape="http://www.inkscape.org/namespaces/inkscape"
   xmlns:sodipodi="http://sodipodi.sourceforge.net/DTD/sodipodi-0.dtd"
   xmlns="http://www.w3.org/2000/svg"
   xmlns:svg="http://www.w3.org/2000/svg"><sodipodi:namedview
     id="namedview1"
     pagecolor="#ffffff"
     bordercolor="#000000"
     borderopacity="0.25"
     inkscape:showpageshadow="2"
     inkscape:pageopacity="0.0"
     inkscape:pagecheckerboard="0"
     inkscape:deskcolor="#d1d1d1"
     inkscape:document-units="mm"
     inkscape:zoom="0.023162177"
     inkscape:cx="-2115.5179"
     inkscape:cy="1813.301"
     inkscape:window-width="1470"
     inkscape:window-height="923"
     inkscape:window-x="0"
     inkscape:window-y="33"
     inkscape:window-maximized="0"
     inkscape:current-layer="layer1" /><defs
     id="defs1" /><g
     inkscape:label="Layer 1"
     inkscape:groupmode="layer"
     id="layer1"
     transform="translate(-663.8396,330.20001)"><path
       style="fill:#828282;fill-opacity:1"
       d="m 815.04897,-31.906199 c -20.22528,-1.505131 -36.12857,-5.569944 -52.65208,-13.457656 -40.4402,-19.304652 -69.34579,-57.160475 -77.28504,-101.215325 -4.402,-24.42666 -2.14218,-50.29171 6.39517,-73.19687 5.78928,-15.53228 13.44215,-28.70207 24.19598,-41.6388 3.52836,-4.24458 12.67719,-13.3934 16.92176,-16.92176 19.36664,-16.09879 41.36641,-26.38937 65.62317,-30.69579 14.20475,-2.52185 30.40744,-2.75728 44.71459,-0.64973 22.78193,3.35595 44.4341,12.32606 62.84505,26.0356 5.78211,4.3056 9.80061,7.8067 15.48623,13.49232 5.68562,5.68562 9.18672,9.70412 13.49232,15.48623 34.80487,46.74051 36.73432,110.69529 4.81345,159.550259 -12.66452,19.383082 -30.35972,35.659107 -50.73185,46.663091 -16.26389,8.784929 -33.07647,13.922357 -52.51979,16.048506 -3.61554,0.395364 -18.12702,0.735975 -21.29896,0.499925 z m 10.45105,-38.584082 c 8.71919,-1.056747 15.93719,-3.050058 22.75166,-6.283065 14.55225,-6.904056 23.85704,-18.262854 26.08083,-31.838124 0.56367,-3.44093 0.37993,-9.80967 -0.37833,-13.11375 -2.21047,-9.63197 -7.516,-16.16391 -23.45104,-28.87188 -7.3993,-5.90084 -8.85854,-7.82899 -9.0737,-11.98937 -0.23903,-4.62197 2.14977,-8.44683 8.61616,-13.79589 10.79335,-8.92834 15.46068,-16.48355 16.72613,-27.07529 0.7383,-6.17948 -0.15638,-12.92698 -2.48206,-18.71914 -0.51209,-1.27539 -0.84699,-2.40061 -0.74422,-2.50051 0.10277,-0.0999 5.18748,-4.4738 11.29936,-9.7198 l 11.1125,-9.53817 0.0724,11.70252 0.0724,11.70253 -0.60157,0.38104 c -0.33086,0.20957 -1.29428,1.07673 -2.14094,1.92703 -1.70193,1.70924 -2.91742,3.98135 -3.34994,6.262 -0.16984,0.89556 -0.2644,8.94666 -0.25481,21.69469 0.0137,18.27824 0.0599,20.44181 0.4698,22.01193 1.60595,6.15201 7.84128,10.27448 14.07984,9.30884 4.90983,-0.75997 9.10288,-4.53119 10.35006,-9.30884 0.40987,-1.57012 0.45604,-3.73369 0.4698,-22.01193 0.01,-12.74803 -0.085,-20.79913 -0.25481,-21.69469 -0.56349,-2.97126 -2.86039,-6.49115 -5.16542,-7.91573 l -0.91452,-0.56521 0.0103,-17.24248 0.0103,-17.24248 3.08438,-2.64584 3.08437,-2.64583 -53.88369,-0.0668 -53.88369,-0.0668 -31.67255,28.50949 -31.67255,28.5095 21.43546,0.0677 21.43545,0.0677 0.17617,2.57814 c 0.55947,8.1878 4.14644,16.27714 9.8972,22.3202 5.53614,5.81754 12.42659,9.42598 20.71122,10.84619 2.89184,0.49575 3.98175,0.54823 8.93291,0.43016 5.14986,-0.12281 5.62366,-0.0969 5.46017,0.29856 -1.53815,3.72062 -1.78667,4.72954 -1.90945,7.75178 -0.0929,2.28624 -0.0119,3.5953 0.31262,5.05399 0.68207,3.06576 2.65799,6.80867 5.38337,10.19749 0.50379,0.62644 0.86913,1.18585 0.81185,1.24313 -0.0573,0.0573 -1.70771,0.23212 -3.66762,0.38853 -15.76386,1.25804 -26.91854,3.80457 -35.57806,8.12219 -10.9654,5.46733 -18.21052,13.59282 -20.95653,23.50301 -0.67856,2.44888 -0.7324,3.00033 -0.72332,7.40833 0.009,4.420663 0.0619,4.933418 0.73503,7.143749 1.56857,5.15036 3.80664,8.852268 7.68512,12.711689 5.80992,5.781355 13.4192,9.543168 23.71075,11.721917 2.45718,0.520193 7.94563,1.262073 10.84791,1.466326 3.00076,0.211183 13.74776,-0.09266 16.93334,-0.478742 z m -5.29167,-9.310084 c -6.38419,-0.756253 -8.95912,-1.256558 -12.83229,-2.493292 -6.06392,-1.936256 -10.73667,-4.704384 -14.68438,-8.699005 -5.23743,-5.299672 -7.41558,-10.982938 -7.05672,-18.412558 0.16088,-3.33086 0.57933,-5.29805 1.68843,-7.9375 4.77181,-11.35599 20.18816,-18.17735 41.21933,-18.23854 l 6.08542,-0.0177 4.89479,3.68093 c 7.00383,5.26695 8.49145,6.5065 11.9209,9.93305 5.80508,5.80016 7.92285,10.40037 7.92285,17.20998 0,12.704872 -8.853,21.680141 -24.04781,24.379918 -2.29825,0.408347 -4.47141,0.565795 -8.62823,0.625123 -3.05594,0.04362 -5.97297,0.02994 -6.48229,-0.0304 z m 2.77812,-93.685715 c -0.43656,-0.0576 -1.72679,-0.34089 -2.86717,-0.62957 -10.74897,-2.72101 -19.4011,-15.15677 -22.53636,-32.39165 -0.58798,-3.23219 -0.81492,-10.56981 -0.41421,-13.39248 1.37428,-9.68055 6.20615,-15.91422 14.57295,-18.80079 2.35025,-0.81084 2.74559,-0.86758 6.08542,-0.87341 4.14652,-0.007 5.84949,0.363 9.13847,1.98681 10.58686,5.22683 18.64754,20.9118 19.8475,38.62049 0.33343,4.92066 -0.7053,10.94206 -2.50136,14.50002 -1.10941,2.19774 -2.95305,4.53699 -4.63812,5.88496 -4.75266,3.80188 -11.31148,5.8047 -16.68712,5.09562 z"
       id="path1" /></g></svg>
