<?xml version="1.0" encoding="UTF-8" standalone="no"?>
<!-- Created with Inkscape (http://www.inkscape.org/) -->

<svg
   version="1.1"
   id="svg1"
   width="1280"
   height="1280"
   viewBox="0 0 1280 1280"
   sodipodi:docname="icon-orcid.svg"
   inkscape:version="1.4.3 (0d15f75, 2025-12-25)"
   xmlns:inkscape="http://www.inkscape.org/namespaces/inkscape"
   xmlns:sodipodi="http://sodipodi.sourceforge.net/DTD/sodipodi-0.dtd"
   xmlns="http://www.w3.org/2000/svg"
   xmlns:svg="http://www.w3.org/2000/svg">
  <defs
     id="defs1" />
  <sodipodi:namedview
     id="namedview1"
     pagecolor="#ffffff"
     bordercolor="#000000"
     borderopacity="0.25"
     inkscape:showpageshadow="2"
     inkscape:pageopacity="0.0"
     inkscape:pagecheckerboard="0"
     inkscape:deskcolor="#d1d1d1"
     showgrid="false"
     inkscape:zoom="0.4671875"
     inkscape:cx="640"
     inkscape:cy="640"
     inkscape:window-width="1470"
     inkscape:window-height="817"
     inkscape:window-x="0"
     inkscape:window-y="33"
     inkscape:window-maximized="0"
     inkscape:current-layer="g1" />
  <g
     inkscape:groupmode="layer"
     inkscape:label="Image"
     id="g1">
    <path
       style="fill:#828282;fill-opacity:1;opacity:1"
       d="M 605.5,1279.2972 C 356.55985,1265.8281 137.94642,1108.7371 45.097685,876.60373 27.042042,831.46239 13.610345,781.07928 6.5475951,732 1.5304756,697.13587 0.56762468,682.32271 0.56762468,640 c 0,-42.32271 0.96285092,-57.13587 5.97997042,-92 C 32.148595,370.09782 131.76505,211.30937 281.5,109.72636 361.2367,55.631488 452.56754,20.272277 548,6.5495078 599.87512,-0.90990735 658.04683,-1.991719 708.94449,3.5564444 897.77508,24.140158 1067.3019,127.02459 1172.6905,285 c 52.8555,79.22932 87.2264,168.94138 100.7619,263 5.0171,34.86413 5.98,49.67729 5.98,92 0,42.32271 -0.9629,57.13587 -5.98,92 -34.537,239.99869 -203.403,440.8522 -434.10731,516.3381 -52.60441,17.2121 -103.62429,26.9361 -160.84509,30.6558 -13.741,0.8933 -58.64724,1.0799 -73,0.3033 z M 431,663.5 V 396 H 393 355 V 663.5 931 h 38 38 z m 369.22486,264.72825 c 63.71542,-10.02207 114.00543,-33.98325 156.44051,-74.53764 26.04615,-24.8918 49.26103,-59.86723 62.81053,-94.62998 17.5354,-44.98918 22.1112,-96.72263 12.9704,-146.64227 -7.7059,-42.08335 -25.742,-82.83537 -51.26709,-115.83631 -38.05003,-49.19431 -95.26032,-82.71167 -162.25072,-95.05663 -26.9544,-4.96715 -23.8193,-4.85945 -152.67849,-5.24502 L 545,395.9176 v 267.58255 267.58256 l 120.75,-0.34781 c 117.91003,-0.33962 121.0728,-0.39858 134.47486,-2.50665 z M 621,663.43703 V 464.87406 l 74.75,0.39829 c 63.81053,0.34001 76.43299,0.64767 86.25,2.10229 42.74825,6.33415 72.60116,17.44927 101.51877,37.79844 13.71934,9.65423 32.54734,28.98017 41.72346,42.82692 20.11844,30.35868 29.84658,60.11982 32.82406,100.41812 3.06455,41.47662 -8.3537,87.6943 -30.48154,123.38016 -32.54046,52.47847 -85.29433,82.61992 -156.08475,89.1806 -6.2325,0.57761 -41.23029,1.01981 -80.75,1.02028 L 621,862 Z M 405.63161,332.60987 C 427.47155,326.79458 443,306.59473 443,284 c 0,-22.59473 -15.52845,-42.79458 -37.36839,-48.60987 -16.58368,-4.41572 -35.84861,0.83617 -48.12521,13.11961 -19.27471,19.28545 -19.42248,51.08146 -0.32754,70.47997 12.37777,12.57455 31.83671,18.0445 48.45275,13.62016 z"
       id="path1" />
  </g>
</svg>
