<?xml version="1.0" encoding="UTF-8" standalone="no"?>
<!-- Created with Inkscape (http://www.inkscape.org/) -->

<svg
   version="1.1"
   id="svg1"
   width="1280"
   height="1131"
   viewBox="0 0 1280 1131"
   sodipodi:docname="icon-bluesky.svg"
   inkscape:version="1.4.3 (0d15f75, 2025-12-25)"
   xmlns:inkscape="http://www.inkscape.org/namespaces/inkscape"
   xmlns:sodipodi="http://sodipodi.sourceforge.net/DTD/sodipodi-0.dtd"
   xmlns="http://www.w3.org/2000/svg"
   xmlns:svg="http://www.w3.org/2000/svg">
  <defs
     id="defs1" />
  <sodipodi:namedview
     id="namedview1"
     pagecolor="#ffffff"
     bordercolor="#000000"
     borderopacity="0.25"
     inkscape:showpageshadow="2"
     inkscape:pageopacity="0.0"
     inkscape:pagecheckerboard="0"
     inkscape:deskcolor="#d1d1d1"
     inkscape:zoom="0.022988506"
     inkscape:cx="652.5"
     inkscape:cy="565.5"
     inkscape:window-width="1470"
     inkscape:window-height="895"
     inkscape:window-x="0"
     inkscape:window-y="61"
     inkscape:window-maximized="0"
     inkscape:current-layer="g1" />
  <g
     inkscape:groupmode="layer"
     inkscape:label="Image"
     id="g1">
    <path
       style="fill:#828282;fill-opacity:1"
       d="m 400,1108.9531 c -40.58627,-3.0756 -84.73166,-24.4069 -132,-63.7831 -16.00717,-13.3346 -46.19908,-43.2396 -58.72799,-58.17 -36.13196,-43.05756 -53.909,-86.53574 -51.92682,-127 1.60653,-32.79584 14.37336,-60.47435 40.05595,-86.84134 38.52708,-39.55378 101.61372,-68.47056 186.87475,-85.65706 9.33802,-1.88231 17.25855,-3.72111 17.60117,-4.08622 0.34262,-0.36511 -0.27706,-0.40279 -1.37706,-0.0837 -3.74464,1.08615 -23.95921,3.55375 -38.78112,4.73402 C 342.31745,689.61062 295.75162,688.77609 279,686.58323 218.78031,678.7002 168.14125,658.31256 130.21964,626.6832 98.518704,600.24233 74.145848,563.97208 60.173364,522.44446 53.646139,503.0449 50.49649,484.28055 44.064177,426.47238 34.240596,338.18637 22.002775,182.05948 22.000819,144.99387 21.997413,80.479367 42.765048,39.763517 82.746326,25.89967 90.328188,23.270595 105.52931,21.008433 115.5,21.025418 c 40.82907,0.06955 96.99591,21.375387 151,57.279016 C 357.51304,138.81278 473.86488,267.06289 569.23731,412 c 25.99828,39.50949 47.56845,75.76397 63.26269,106.32999 3.85,7.49825 7.225,13.63317 7.5,13.63317 0.275,0 3.65,-6.13492 7.5,-13.63317 C 688.80696,437.88074 764.59398,328.24431 838.16957,242.5 943.67801,119.54146 1036.3887,49.32342 1122.7752,26.942965 c 71.5972,-18.5489417 118.0191,7.32942 131.0897,73.077225 4.7005,23.64423 5.1636,43.09923 2.1542,90.47981 -7.372,116.06235 -20.1585,250.71387 -28.5379,300.52409 -7.3839,43.89312 -28.5833,86.08675 -59.4667,118.35792 -42.4449,44.35221 -102.8699,71.03933 -176.92511,78.14031 -17.75048,1.70204 -56.90018,1.93627 -74.58939,0.44624 -13.01225,-1.09606 -33.78467,-3.69793 -37,-4.63447 -1.1,-0.3204 -1.71968,-0.28382 -1.37706,0.0813 0.34262,0.36511 8.44262,2.23385 18,4.15274 46.34713,9.30541 87.04875,22.51122 120.04536,38.9492 26.0389,12.97187 44.4674,25.51696 61.5726,41.91528 28.7858,27.59616 43.3172,57.19655 44.9521,91.5674 1.9206,40.37598 -15.9746,84.11117 -51.965,127 -12.5289,14.9304 -42.7208,44.8354 -58.728,58.17 -72.14198,60.0968 -136.7004,77.8968 -195.46708,53.8937 C 782.25458,1085.0629 748.44019,1054.0408 719.45247,1010 693.21227,970.13346 671.92069,923.57772 647.53651,852.75 642.8189,839.04696 641.42702,836 639.88495,836 638.84823,836 638,836.16065 638,836.357 c 0,1.3314 -18.87747,54.14276 -24.00032,67.143 -37.27633,94.59589 -80.95181,156.2766 -131.8822,186.2507 -25.31199,14.8969 -53.12073,21.3997 -82.11748,19.2024 z"
       id="path1" />
  </g>
</svg>
