<?xml version="1.0" encoding="UTF-8" standalone="no"?>
<!-- Created with Inkscape (http://www.inkscape.org/) -->

<svg
   version="1.1"
   id="svg1"
   width="800"
   height="800"
   viewBox="0 0 800 800"
   sodipodi:docname="icon-email.svg"
   inkscape:version="1.4.3 (0d15f75, 2025-12-25)"
   xmlns:inkscape="http://www.inkscape.org/namespaces/inkscape"
   xmlns:sodipodi="http://sodipodi.sourceforge.net/DTD/sodipodi-0.dtd"
   xmlns="http://www.w3.org/2000/svg"
   xmlns:svg="http://www.w3.org/2000/svg">
  <defs
     id="defs1" />
  <sodipodi:namedview
     id="namedview1"
     pagecolor="#ffffff"
     bordercolor="#000000"
     borderopacity="0.25"
     inkscape:showpageshadow="2"
     inkscape:pageopacity="0.0"
     inkscape:pagecheckerboard="0"
     inkscape:deskcolor="#d1d1d1"
     inkscape:zoom="0.25132198"
     inkscape:cx="222.82174"
     inkscape:cy="453.6014"
     inkscape:window-width="1470"
     inkscape:window-height="923"
     inkscape:window-x="0"
     inkscape:window-y="33"
     inkscape:window-maximized="0"
     inkscape:current-layer="g1" />
  <g
     inkscape:groupmode="layer"
     inkscape:label="Image"
     id="g1">
    <path
       style="fill:#828282;fill-opacity:1"
       d="M 388.66667,781.69772 C 229.87901,777.19795 89.527363,673.46376 38.199425,522.66667 18.518944,464.8471 13.223925,397.84875 23.44677,336 49.63227,177.57632 177.57632,49.63227 336,23.44677 c 40.41846,-6.680679 87.58154,-6.680679 128,0 C 622.40825,49.62972 750.37028,177.59175 776.55323,336 c 6.68068,40.41846 6.68068,87.58154 0,128 -24.45212,147.93661 -137.95024,270.47935 -283.88656,306.50937 -33.29162,8.21932 -69.87815,12.15531 -104,11.18835 z M 623.9611,567.35345 c 2.10576,-1.08893 5.22597,-3.93893 6.93378,-6.33333 L 634,556.66667 V 400 243.33333 l -3.10512,-4.35345 c -6.39305,-8.96321 11.66034,-8.31321 -230.89488,-8.31321 -242.55522,0 -224.50183,-0.65 -230.89488,8.31321 L 166,243.33333 V 400 c 0,153.32307 0.0557,156.74893 2.60961,160.52094 1.43528,2.11985 4.43528,4.96761 6.66666,6.32835 3.90851,2.38348 12.12738,2.47426 224.45661,2.47906 192.31421,0.004 220.88743,-0.24731 224.22822,-1.9749 z M 242.75773,528.9576 c 1.15009,-0.89335 26.28045,-23.22427 55.84524,-49.62427 29.56479,-26.4 54.12649,-48.15089 54.58154,-48.33531 0.45506,-0.18443 8.98286,6.76614 18.95067,15.44569 9.96781,8.67956 19.16421,16.18045 20.43644,16.66865 3.65996,1.40446 12.66321,1.03418 15.8106,-0.65025 1.58047,-0.84584 10.61574,-8.34584 20.07838,-16.66667 9.46264,-8.32082 17.75055,-15.12877 18.41758,-15.12877 0.66704,0 26.4116,22.5 57.21015,50 l 55.99736,50 -159.70951,-0.0424 C 274.57027,530.59086 241.11056,530.23705 242.75773,528.9576 Z M 205.33333,405.46898 V 301.13979 l 3.06645,2.4301 c 14.26554,11.30519 115.39836,101.13156 114.61424,101.80059 -1.03443,0.88259 -109.22222,96.8687 -114.68069,101.74671 l -3,2.68098 z M 536,456.69792 c -31.9,-28.43789 -58,-52.26089 -58,-52.93999 0,-0.6791 26.1,-24.03245 58,-51.89634 l 58,-50.6616 0.3489,52.16571 c 0.19189,28.69113 0.19189,75.31185 0,103.6016 L 594,508.40319 Z M 319.06931,348.24359 238.80528,278 l 80.59736,-0.34366 c 44.32855,-0.18902 116.82582,-0.18902 161.10505,0 L 561.01538,278 l -80.0523,70 c -44.02877,38.5 -80.40723,70.10962 -80.84103,70.24359 -0.43379,0.13398 -36.90753,-31.36602 -81.05274,-70 z"
       id="path1" />
  </g>
</svg>
