<?xml version="1.0" encoding="UTF-8" standalone="no"?>
<!-- Created with Inkscape (http://www.inkscape.org/) -->

<svg
   version="1.1"
   id="svg1"
   width="500"
   height="502"
   viewBox="0 0 500 502"
   sodipodi:docname="icon-osf.svg"
   inkscape:version="1.4.3 (0d15f75, 2025-12-25)"
   xmlns:inkscape="http://www.inkscape.org/namespaces/inkscape"
   xmlns:sodipodi="http://sodipodi.sourceforge.net/DTD/sodipodi-0.dtd"
   xmlns="http://www.w3.org/2000/svg"
   xmlns:svg="http://www.w3.org/2000/svg">
  <defs
     id="defs1" />
  <sodipodi:namedview
     id="namedview1"
     pagecolor="#ffffff"
     bordercolor="#000000"
     borderopacity="0.25"
     inkscape:showpageshadow="2"
     inkscape:pageopacity="0.0"
     inkscape:pagecheckerboard="0"
     inkscape:deskcolor="#d1d1d1"
     inkscape:zoom="0.66365174"
     inkscape:cx="250.13119"
     inkscape:cy="162.73595"
     inkscape:window-width="1470"
     inkscape:window-height="923"
     inkscape:window-x="0"
     inkscape:window-y="33"
     inkscape:window-maximized="0"
     inkscape:current-layer="g1" />
  <g
     inkscape:groupmode="layer"
     inkscape:label="Image"
     id="g1">
    <path
       style="fill:#b1b1b1;fill-opacity:1"
       d="m 234.36204,500.01856 c -11.37386,-2.98182 -19.31462,-7.54496 -28.06476,-16.12735 -7.38991,-7.24825 -12.16882,-14.83824 -15.64451,-24.84704 -2.54607,-7.3318 -2.97102,-10.03406 -2.99484,-19.04417 -0.0411,-15.55011 4.40256,-28.29756 13.87544,-39.80418 4.37561,-5.31502 4.4122,-5.42315 3.8042,-11.24023 -2.95886,-28.30883 23.5893,-52.97633 51.80747,-48.13745 22.7867,3.90748 39.42483,24.8602 37.54842,47.28545 -0.54606,6.52601 -0.5068,6.65895 3.34093,11.31525 19.09149,23.10333 19.35185,56.67227 0.61556,79.36571 -15.70498,19.02191 -40.93674,27.35585 -64.28791,21.23401 z M 102,444.42392 c -10.528399,-2.76506 -19.808589,-8.16855 -28.020586,-16.31528 -9.02944,-8.95768 -14.168653,-17.61867 -16.982271,-28.61981 -6.563407,-25.66267 3.660133,-52.75115 25.395634,-67.28874 9.172408,-6.13488 16.549581,-8.98523 27.255343,-10.53075 7.91351,-1.14242 8.29544,-1.32364 12.24452,-5.81003 14.69141,-16.69033 40.8944,-19.83596 59.15431,-7.10139 23.67627,16.51198 25.4386,52.52643 3.46895,70.89078 -4.01568,3.35669 -4.5159,4.23211 -4.5159,7.9031 0,6.53267 -3.66487,19.15128 -7.65205,26.34699 -5.27456,9.51905 -17.0687,20.8768 -26.42245,25.44482 -4.08403,1.99448 -10.10754,4.30809 -13.3856,5.14136 -7.46263,1.89697 -23.20426,1.8655 -30.5399,-0.061 z m 266.21698,0.12679 c -2.90566,-0.70356 -8.75566,-2.98122 -13,-5.06148 -9.55806,-4.68463 -22.0254,-16.77301 -26.99587,-26.17528 -3.55029,-6.71584 -7.21357,-19.48964 -7.23373,-25.22391 -0.0108,-3.08214 -0.77099,-4.25507 -5.37308,-8.2907 -11.16459,-9.79037 -16.15314,-21.64594 -15.43432,-36.68056 0.35606,-7.44729 0.94265,-9.83946 3.96733,-16.17912 13.65972,-28.63049 50.78979,-34.80489 72.71741,-12.09226 5.51069,5.70798 5.78401,5.85214 12.36258,6.52034 24.93209,2.53241 45.28747,18.90725 53.89658,43.35696 2.90105,8.2389 3.58032,23.68249 1.44159,32.7753 -4.25614,18.09504 -17.33385,34.56847 -33.56547,42.281 -4.675,2.22135 -10.88465,4.52936 -13.79922,5.12891 -6.98251,1.43635 -22.35507,1.24584 -28.9838,-0.3592 z M 52.927167,312.93615 C 30.846913,309.68735 11.784727,293.71776 3.1581733,271.24155 0.83558175,265.19011 0.5707106,263.11804 0.5707106,251 c 0,-12.11804 0.26487115,-14.19011 2.5874627,-20.24155 C 10.784111,210.88931 25.579224,196.78138 45,190.86002 c 5.697031,-1.73702 9.903958,-2.28328 17.5,-2.27235 15.13892,0.0218 27.141213,4.21793 38.77847,13.55745 6.0112,4.82431 6.28308,4.92863 11.23259,4.31023 19.92746,-2.48977 41.72742,12.8362 46.9466,33.00475 4.24032,16.38592 -0.40883,32.58329 -12.68489,44.19348 -9.29249,8.78845 -19.60002,12.6591 -32.53673,12.2181 l -7.7811,-0.26525 -5.47747,4.44678 c -7.210649,5.85384 -18.171142,10.79127 -27.744476,12.49821 -8.569549,1.52796 -12.083448,1.59454 -20.305827,0.38473 z M 426.15584,312.5431 c -8.96905,-1.69036 -22.08813,-7.87392 -28.15682,-13.27147 l -4.50099,-4.00322 -7.64454,0.4906 c -21.28035,1.36569 -39.75193,-11.12214 -46.08318,-31.15483 -3.01725,-9.54684 -2.20333,-22.98129 1.92558,-31.78379 5.25419,-11.20148 14.05679,-19.32747 25.80411,-23.82068 4.69061,-1.79411 8.19302,-2.32187 16.04907,-2.41837 l 10.04907,-0.12344 4.95093,-4.16377 c 10.67164,-8.97495 24.05674,-13.68504 38.95093,-13.70646 15.0562,-0.0217 25.98629,3.66485 38.29186,12.91512 7.63323,5.738 14.26831,14.17596 18.69024,23.76875 4.4828,9.72483 5.8957,17.62775 5.27284,29.49313 -1.953,37.20438 -36.9572,64.68417 -73.5991,57.77843 z M 143.5,199.59582 c -7.79014,-2.47412 -15.06153,-6.95089 -20.56019,-12.6583 -5.47288,-5.68063 -5.69798,-5.79745 -13.17529,-6.83745 C 85.654969,176.74674 65.816058,160.349 57.797164,137.14673 55.845826,131.50063 55.506946,128.54292 55.546137,117.5 55.586925,106.00725 55.891021,103.71837 58.168955,97.758449 61.79568,88.269593 66.563782,80.767805 73.300035,73.952294 80.48067,66.687174 88.12463,61.971011 98.509598,58.39852 105.34777,56.046148 108.08622,55.651508 117.5,55.661803 c 9.59879,0.0105 12.08838,0.390737 19.54417,2.985036 23.80611,8.283511 40.37122,28.97695 42.67268,53.307471 0.59723,6.31381 0.73752,6.5719 6.44427,11.85534 24.96147,23.10992 15.32775,65.15581 -17.25208,75.29579 -7.0576,2.19657 -19.29331,2.43272 -25.40904,0.49038 z m 189,0.002 c -15.18931,-4.81635 -26.33314,-15.65347 -30.62441,-29.78153 -1.68079,-5.53364 -2.0268,-8.80632 -1.70527,-16.12928 0.53954,-12.28809 4.16725,-20.31326 13.17492,-29.14532 6.20486,-6.08391 6.34712,-6.34267 6.94156,-12.62646 2.69974,-28.538897 25.43071,-51.975267 54.30622,-55.991481 28.89211,-4.018522 56.16069,12.944931 67.24881,41.83467 2.32259,6.051441 2.58746,8.123511 2.58746,20.241551 0,12.11804 -0.26487,14.19011 -2.58746,20.24155 -5.44143,14.17747 -15.01239,26.07245 -26.68271,33.16179 -6.74896,4.09978 -19.21028,8.25651 -27.34061,9.12003 -5.18459,0.55065 -5.99114,0.98131 -9.22209,4.92426 -4.54272,5.54379 -12.55136,10.84219 -20.36884,13.4757 -7.09898,2.39148 -19.30371,2.71146 -25.72758,0.67452 z m -92.47576,-39.20094 c -19.78712,-5.31728 -34.14296,-25.16038 -32.79504,-45.33035 l 0.43883,-6.56656 -4.7008,-5.18483 c -6.12492,-6.755587 -9.27915,-12.252937 -12.57996,-21.925021 -2.28221,-6.687337 -2.6927,-9.567042 -2.6927,-18.890149 0,-9.356324 0.40739,-12.193967 2.72635,-18.990402 C 196.9899,24.257165 210.26498,10.639925 229.75845,3.1581733 235.80989,0.83558175 237.88196,0.5707106 250,0.5707106 c 12.11804,0 14.19011,0.26487115 20.24155,2.5874627 C 290.19265,10.81557 304.1861,25.489434 310.1432,45 c 5.57314,18.253067 1.14178,41.18329 -10.76757,55.71709 l -3.51274,4.28682 0.67957,7.79041 c 1.19518,13.70129 -3.47031,26.30343 -13.4088,36.21906 -11.29712,11.27113 -27.55344,15.5638 -43.10942,11.38353 z"
       id="path21" />
    <path
       style="fill:#828282;fill-opacity:1"
       d="m 241.53078,500.92044 c -36.64107,-5.54463 -60.59155,-40.99318 -51.55878,-76.31096 2.23502,-8.73884 7.42617,-19.19882 12.4615,-25.10948 3.0958,-3.63396 3.47051,-3.81698 4.09483,-2 5.25641,15.29807 16.84321,26.65325 31.28245,30.65714 16.26204,4.50933 31.77269,0.40303 43.76104,-11.58532 C 287.25524,410.8884 293,401.33243 293,397.56193 c 0,-6.86189 11.86482,10.59649 16.60827,24.43807 2.66422,7.77432 2.66372,27.22823 -9e-4,35 -9.0799,26.48286 -28.9271,42.1688 -56.10737,44.34363 -3.3,0.26405 -8.68615,0.0736 -11.96922,-0.42319 z M 104.5,444.3514 C 81.909888,439.55729 63.297414,421.6351 57.386856,398.98554 55.179245,390.52586 55.206452,376.44838 57.446739,368 63.086493,346.73186 81.068595,328.96373 102.5,323.48285 c 8.14173,-2.08218 22.4214,-2.07817 30.5,0.009 20.92938,5.40611 38.11831,22.38529 44.6127,44.06832 2.30134,7.68356 2.31069,22.61301 0.0196,31.36804 -6.08135,23.23934 -24.47225,40.73032 -47.84018,45.49923 -9.3491,1.90796 -16.03979,1.88796 -25.29216,-0.0756 z m 267.75058,0.6075 C 350.05119,440.97407 330.61138,423.30542 323.8851,401 c -2.91442,-9.66471 -3.14008,-24.66984 -0.50294,-33.444 6.49368,-21.60553 23.65565,-38.65452 44.26218,-43.97082 8.8326,-2.27872 23.15035,-2.06688 32.37576,0.47902 19.52139,5.38726 36.01447,21.073 42.43413,40.35697 10.66592,32.03926 -7.14235,67.21386 -39.58644,78.19048 -8.29786,2.80736 -22.1414,3.86867 -30.61721,2.34725 z M 47.215527,310.98135 C 27.135926,305.72051 10.680914,290.74872 3.9591081,271.62398 -6.4266943,242.07451 6.6730689,209.78769 34.750879,195.7319 c 21.723759,-10.87495 46.42079,-8.44122 65.999121,6.50377 5.53387,4.22424 6.44487,5.76433 3.40972,5.76433 -3.68195,0 -14.169401,6.22707 -19.551024,11.6087 -10.146751,10.14675 -15.030299,24.59642 -12.820305,37.93331 2.771194,16.72362 14.438293,30.90855 29.699189,36.10846 l 4.77697,1.62768 -3.88227,3.32174 C 88.182869,310.74914 65.6401,315.80857 47.215527,310.98135 Z m 375.146513,0.0372 c -3.92588,-1.02923 -9.32588,-2.98361 -12,-4.34307 -6.46238,-3.28532 -16.59672,-10.86921 -15.63044,-11.69681 0.42262,-0.36197 2.3434,-1.25876 4.2684,-1.99287 23.7185,-9.04517 34.93632,-37.42912 24.01572,-60.76592 -3.9398,-8.41915 -12.38431,-17.1422 -20.42855,-21.10236 C 399.10424,209.40289 395.74729,208 395.12729,208 c -2.31453,0 -0.97483,-1.87316 4.12271,-5.76433 10.32677,-7.88287 21.31853,-12.08624 33.81013,-12.92935 14.99353,-1.01198 26.23687,1.97574 39.13115,10.39839 16.93935,11.06494 26.84081,29.41729 27.13531,50.29529 0.16401,11.62737 -1.28767,17.96746 -6.64006,29 -12.29743,25.34787 -42.79845,39.2349 -70.32449,32.01856 z M 102.21553,178.04217 C 71.731714,169.80091 51.745362,140.63473 55.935877,110.50604 59.417593,85.473428 75.194235,66.809088 100,58.376584 c 7.76011,-2.637983 27.23989,-2.637983 35,0 14.98755,5.094886 25.86994,13.159902 33.84388,25.08193 19.17198,28.664496 11.87445,66.489256 -16.57854,85.930326 -10.04607,6.86417 -19.40243,9.84294 -32.26534,10.27224 -8.15333,0.27212 -12.12803,-0.0897 -17.78447,-1.61891 z m 265.65456,0.49067 C 332.11563,169.43896 312.28016,132.71812 324.0376,97.387012 329.91485,79.725883 345.30073,65.073179 365,58.376584 c 7.30288,-2.482549 27.07994,-2.589719 34.63024,-0.187657 17.89546,5.693288 31.14303,17.025597 38.77485,33.169002 4.46033,9.434811 6.01939,16.335281 6.01939,26.642071 0,10.8055 -1.57855,17.36527 -6.73795,28 -6.99567,14.41971 -19.56764,25.17019 -36.41123,31.13579 -7.60994,2.69526 -25.37924,3.43839 -33.40521,1.39705 z M 202.55304,102.41299 C 182.09678,76.851628 183.55918,41.465476 206,19.005537 c 24.77006,-24.7911575 63.58627,-24.8321788 88.0011,-0.093 6.67875,6.767474 12.7674,16.855394 15.57642,25.807638 2.47481,7.887144 2.94984,21.811823 1.03734,30.40813 -1.96534,8.833835 -6.34237,18.485195 -11.37785,25.088145 l -3.63536,4.767 -3.241,-6.997119 C 284.10602,80.165104 264.07799,69.521756 244.96509,72.799255 228.40444,75.63909 215.1108,86.713445 209.43017,102.40184 l -2.14508,5.92414 z"
       id="path20" />
  </g>
</svg>
